<svg xmlns="http://www.w3.org/2000/svg" viewBox="0 0 585.05 206.54"><defs><style>.cls-1{fill:#21254c;}.cls-2{fill:#73a72d;}.cls-3{fill:#20264c;}.cls-4{fill:#9fc754;}.cls-5{fill:#20274c;}</style></defs><g id="Réteg_2" data-name="Réteg 2"><g id="Réteg_1" data-name="Réteg 1"><path class="cls-1" d="M259.58,58.7v50.69H247.23V58.7Z"/><path class="cls-1" d="M303.67,73.25c2.81,3.06,4.22,7.25,4.22,12.6v23.54H295.61V87.51a8.81,8.81,0,0,0-2.09-6.28,8.2,8.2,0,0,0-11.26,0,8.81,8.81,0,0,0-2.1,6.28v21.88H267.81V69.1h12.35v5.34a13.08,13.08,0,0,1,5.06-4.23,16.11,16.11,0,0,1,7.15-1.55Q299.43,68.66,303.67,73.25Z"/><path class="cls-1" d="M321.82,108.16a16.06,16.06,0,0,1-6.5-4.94,13,13,0,0,1-2.67-7h12.2a4.74,4.74,0,0,0,1.95,3.4,7,7,0,0,0,4.26,1.3,6.13,6.13,0,0,0,3.58-.9,2.79,2.79,0,0,0,1.26-2.35,2.7,2.7,0,0,0-1.8-2.56,36.7,36.7,0,0,0-5.85-1.85A53.41,53.41,0,0,1,321,91.08a12.44,12.44,0,0,1-5-3.53A9.71,9.71,0,0,1,314,81a11.14,11.14,0,0,1,1.91-6.32,13,13,0,0,1,5.63-4.51,21.54,21.54,0,0,1,8.85-1.66q7.59,0,12,3.75a14.63,14.63,0,0,1,5,10H335.9a4.89,4.89,0,0,0-1.84-3.32A6.4,6.4,0,0,0,330,77.69a5.67,5.67,0,0,0-3.32.83,2.65,2.65,0,0,0-1.16,2.27,2.77,2.77,0,0,0,1.84,2.6,29.44,29.44,0,0,0,5.74,1.74,62.11,62.11,0,0,1,7.3,2.27A12.59,12.59,0,0,1,345.32,91a10.23,10.23,0,0,1,2.21,6.68,10.63,10.63,0,0,1-2,6.32,13.13,13.13,0,0,1-5.7,4.37,21.82,21.82,0,0,1-8.63,1.59A23,23,0,0,1,321.82,108.16Z"/><path class="cls-1" d="M370.87,70.25a15.37,15.37,0,0,1,7.44-1.73,16.67,16.67,0,0,1,9,2.53,17.54,17.54,0,0,1,6.39,7.22,24.13,24.13,0,0,1,2.34,10.9,24.36,24.36,0,0,1-2.34,10.94,17.81,17.81,0,0,1-6.39,7.29,16.53,16.53,0,0,1-9,2.57,15.29,15.29,0,0,1-7.4-1.74,13.5,13.5,0,0,1-5-4.47V128.6H353.54V69.1h12.35v5.7A13.38,13.38,0,0,1,370.87,70.25ZM381,81.91a8.5,8.5,0,0,0-6.32-2.63A8.33,8.33,0,0,0,368.38,82a10.08,10.08,0,0,0-2.56,7.29,10.11,10.11,0,0,0,2.56,7.3,8.64,8.64,0,0,0,12.53,0,10.16,10.16,0,0,0,2.6-7.33A10,10,0,0,0,381,81.91Z"/><path class="cls-1" d="M439.41,92.2h-28a8.36,8.36,0,0,0,2.42,5.74,7.38,7.38,0,0,0,5.24,2,6.48,6.48,0,0,0,6.42-3.9h13.15a18.15,18.15,0,0,1-10.26,12.13,21.13,21.13,0,0,1-8.88,1.81A21.54,21.54,0,0,1,409,107.44a18,18,0,0,1-7.23-7.22,22.34,22.34,0,0,1-2.59-11,22.51,22.51,0,0,1,2.56-11,17.71,17.71,0,0,1,7.18-7.22A23.43,23.43,0,0,1,430,71a17.64,17.64,0,0,1,7.11,7,21.23,21.23,0,0,1,2.56,10.61A32.41,32.41,0,0,1,439.41,92.2ZM427,85.34a6.33,6.33,0,0,0-2.17-5,8,8,0,0,0-5.42-1.88,7.78,7.78,0,0,0-5.23,1.81,8,8,0,0,0-2.64,5.12Z"/><path class="cls-1" d="M445.3,78.27a17.76,17.76,0,0,1,7.15-7.22A21.37,21.37,0,0,1,463,68.52a20,20,0,0,1,12.67,4,18.77,18.77,0,0,1,6.68,11.19H469.17a6.33,6.33,0,0,0-6.43-4.62,6.49,6.49,0,0,0-5.42,2.64c-1.35,1.75-2,4.27-2,7.54s.67,5.79,2,7.55a6.48,6.48,0,0,0,5.42,2.63,6.33,6.33,0,0,0,6.43-4.62h13.14a18.89,18.89,0,0,1-6.72,11.12A19.75,19.75,0,0,1,463,110a21.37,21.37,0,0,1-10.51-2.53,17.76,17.76,0,0,1-7.15-7.22,22.55,22.55,0,0,1-2.56-11A22.51,22.51,0,0,1,445.3,78.27Z"/><path class="cls-1" d="M510,98.92v10.47H503.7q-6.72,0-10.47-3.29t-3.76-10.72v-16h-4.91V69.1h4.91V59.27h12.35V69.1h8.09V79.35h-8.09V95.52a3.35,3.35,0,0,0,.87,2.6,4.2,4.2,0,0,0,2.88.8Z"/><path class="cls-1" d="M523,107.44a18.43,18.43,0,0,1-7.43-7.22,21.54,21.54,0,0,1-2.71-11,21.41,21.41,0,0,1,2.74-10.94,18.64,18.64,0,0,1,7.51-7.25,23.85,23.85,0,0,1,21.38,0A18.64,18.64,0,0,1,552,78.3a23.06,23.06,0,0,1,0,21.88,18.71,18.71,0,0,1-7.58,7.26A22.61,22.61,0,0,1,533.69,110,22.23,22.23,0,0,1,523,107.44Zm16.69-10.76q2.49-2.59,2.49-7.44t-2.42-7.44a8.2,8.2,0,0,0-11.95,0q-2.39,2.57-2.39,7.47t2.35,7.44a7.61,7.61,0,0,0,5.89,2.6A8.08,8.08,0,0,0,539.72,96.68Z"/><path class="cls-1" d="M577.83,70.58a13.9,13.9,0,0,1,7.22-1.92V81.73h-3.4q-4.62,0-6.93,2t-2.31,7v18.7H560.06V69.1h12.35v6.71A16.29,16.29,0,0,1,577.83,70.58Z"/><path class="cls-1" d="M273.09,179.36l-10.55-19.14h-3v19.14H247.23V128.67H268a22.8,22.8,0,0,1,10.22,2.09,14.43,14.43,0,0,1,6.31,5.74,16,16,0,0,1,2.1,8.13,15.08,15.08,0,0,1-2.85,9,15.34,15.34,0,0,1-8.42,5.63L287,179.36Zm-13.51-27.87h7.66a7,7,0,0,0,5.09-1.67,6.25,6.25,0,0,0,1.69-4.69,6.09,6.09,0,0,0-1.69-4.55,7.05,7.05,0,0,0-5.09-1.66h-7.66Z"/><path class="cls-1" d="M292.41,148.24A17.41,17.41,0,0,1,298.8,141a16.62,16.62,0,0,1,9-2.53,15.43,15.43,0,0,1,7.47,1.73,12.84,12.84,0,0,1,4.95,4.55v-5.71h12.34v40.3H320.25v-5.71a13.34,13.34,0,0,1-5,4.55,15.5,15.5,0,0,1-7.48,1.74,16.36,16.36,0,0,1-8.95-2.57,17.67,17.67,0,0,1-6.39-7.29,26.55,26.55,0,0,1,0-21.84Zm25.27,3.68a8.68,8.68,0,0,0-12.49,0,10,10,0,0,0-2.56,7.26,10.23,10.23,0,0,0,2.56,7.33,8.59,8.59,0,0,0,12.49,0,11.64,11.64,0,0,0,0-14.59Z"/><path class="cls-1" d="M403.61,143.18q4.44,4.55,4.44,12.64v23.54H395.78V157.48a8.33,8.33,0,0,0-2.06-6,8.61,8.61,0,0,0-11.34,0,8.33,8.33,0,0,0-2.06,6v21.88H368.05V157.48a8.33,8.33,0,0,0-2.06-6,8.61,8.61,0,0,0-11.34,0,8.33,8.33,0,0,0-2,6v21.88H340.25v-40.3H352.6v5.06a13.13,13.13,0,0,1,4.91-4,15.5,15.5,0,0,1,6.86-1.48,16.67,16.67,0,0,1,8.12,2,14,14,0,0,1,5.6,5.56,16.11,16.11,0,0,1,5.7-5.41,15.39,15.39,0,0,1,7.87-2.1Q399.18,138.63,403.61,143.18Z"/><path class="cls-1" d="M432.76,140.22a15.53,15.53,0,0,1,7.44-1.73,16.67,16.67,0,0,1,9,2.53,17.54,17.54,0,0,1,6.39,7.22,26.55,26.55,0,0,1,0,21.84,17.81,17.81,0,0,1-6.39,7.29,16.53,16.53,0,0,1-9,2.57,15.59,15.59,0,0,1-7.44-1.7,13.12,13.12,0,0,1-5-4.51v5.63H415.43V125.92h12.35v18.85A12.79,12.79,0,0,1,432.76,140.22Zm10.08,11.66a8.5,8.5,0,0,0-6.32-2.63,8.33,8.33,0,0,0-6.25,2.67,11.67,11.67,0,0,0,0,14.59,8.64,8.64,0,0,0,12.53,0,10.16,10.16,0,0,0,2.6-7.33A10,10,0,0,0,442.84,151.88Z"/><path class="cls-1" d="M503.18,139.06v40.3H490.83v-5.49a13.71,13.71,0,0,1-5.09,4.3,15.63,15.63,0,0,1-7.12,1.62,15.86,15.86,0,0,1-8.16-2.06,13.82,13.82,0,0,1-5.48-5.95,20.28,20.28,0,0,1-2-9.17V139.06H475.3v21.88a8.84,8.84,0,0,0,2.1,6.29,7.34,7.34,0,0,0,5.63,2.24,7.42,7.42,0,0,0,5.7-2.24,8.84,8.84,0,0,0,2.1-6.29V139.06Z"/><path class="cls-1" d="M528.56,140.55a13.9,13.9,0,0,1,7.22-1.92V151.7h-3.4q-4.62,0-6.93,2t-2.31,7v18.7H510.79v-40.3h12.35v6.72A16.29,16.29,0,0,1,528.56,140.55Z"/><path class="cls-1" d="M547.06,178.13a15.9,15.9,0,0,1-6.49-4.95,13.05,13.05,0,0,1-2.68-7H550.1a4.67,4.67,0,0,0,1.95,3.4,6.92,6.92,0,0,0,4.26,1.3,6,6,0,0,0,3.57-.91,2.77,2.77,0,0,0,1.27-2.34,2.73,2.73,0,0,0-1.81-2.57,37.27,37.27,0,0,0-5.85-1.84,53.41,53.41,0,0,1-7.22-2.13,12.34,12.34,0,0,1-5-3.53,9.66,9.66,0,0,1-2.1-6.54,11.07,11.07,0,0,1,1.92-6.32,12.86,12.86,0,0,1,5.63-4.51,21.54,21.54,0,0,1,8.85-1.66q7.57,0,11.95,3.75a14.62,14.62,0,0,1,5,10h-11.4a4.91,4.91,0,0,0-1.85-3.32,6.36,6.36,0,0,0-4.08-1.23,5.67,5.67,0,0,0-3.32.83,2.64,2.64,0,0,0-1.15,2.27,2.76,2.76,0,0,0,1.84,2.6,29.44,29.44,0,0,0,5.74,1.74,62.48,62.48,0,0,1,7.29,2.27,12.62,12.62,0,0,1,5,3.61,10.23,10.23,0,0,1,2.2,6.68,10.62,10.62,0,0,1-2,6.32,13.22,13.22,0,0,1-5.71,4.37,21.79,21.79,0,0,1-8.63,1.59A23.1,23.1,0,0,1,547.06,178.13Z"/><polygon class="cls-2" points="92.4 125.12 92.4 125.12 92.4 137.25 92.4 137.25 138.73 106.89 138.73 94.76 92.4 125.12"/><path class="cls-3" d="M128.59,115.92v12.24L92.4,151.87,56.22,128.16V113.53l11.06,7.25V108.65l-11.06-7.24V86.2L92.4,109.92,128.59,86.2V99l9-5.93,1.1-.72V74L92.4,44.64l-2.71,1.72h0L48.43,72.53h0L46.08,74v59.6L92.4,164l46.33-30.37V109.28Zm-4.29-39L92.4,97.79,81,90.33l31.71-20.78ZM92.4,56.65l10.94,6.93L71.78,84.27,60.51,76.88Z"/><polygon class="cls-4" points="92.4 125.12 77.42 115.3 77.42 127.42 92.4 137.25 92.4 125.12"/><path class="cls-5" d="M92.4,206.54l-5.84-2.95c-28.67-14.45-49.46-31-63.58-50.43C7.54,131.84,0,107.09,0,77.5H0V29l14.59,2.4c2.33.38,4.71.67,7.08.85,2.15.17,4.32.25,6.46.25,21.64,0,41.67-8.19,54.93-22.46L92.4,0l9.35,10.06C115,24.33,135,32.52,156.68,32.52a83.84,83.84,0,0,0,13.54-1.1L184.81,29V77.4c0,29.62-7.51,54.39-23,75.73-14.11,19.48-34.88,36-63.52,50.42ZM12,43.15V77.4c0,27.07,6.79,49.52,20.7,68.72C45.66,164,65.05,179.31,92,192.88h0l.44.22.53-.26c26.88-13.57,46.25-28.86,59.2-46.75C166,126.87,172.81,104.4,172.81,77.4V43.15l-.65.11a95.18,95.18,0,0,1-15.48,1.26c-25,0-48.2-9.58-63.73-26.3l-.55-.59-.55.59C76.33,34.94,53.1,44.52,28.13,44.52c-2.45,0-4.93-.1-7.38-.28-2.72-.21-5.44-.54-8.11-1Z"/></g></g></svg>