<svg xmlns="http://www.w3.org/2000/svg" viewBox="0 0 184.81 206.54"><defs><style>.cls-1{fill:#73a72d;}.cls-2{fill:#20264c;}.cls-3{fill:#9fc754;}.cls-4{fill:#20274c;}</style></defs><g id="Réteg_2" data-name="Réteg 2"><g id="Réteg_1" data-name="Réteg 1"><polygon class="cls-1" points="92.4 125.12 92.4 125.12 92.4 137.25 92.4 137.25 138.73 106.89 138.73 94.76 92.4 125.12"/><path class="cls-2" d="M128.59,115.92v12.24L92.4,151.87,56.22,128.16V113.53l11.06,7.25V108.65l-11.06-7.24V86.2L92.4,109.92,128.59,86.2V99l9-5.93,1.1-.72V74L92.4,44.64l-2.71,1.72h0L48.43,72.53h0L46.08,74v59.6L92.4,164l46.33-30.37V109.28Zm-4.29-39L92.4,97.79,81,90.33l31.71-20.78ZM92.4,56.65l10.94,6.93L71.78,84.27,60.51,76.88Z"/><polygon class="cls-3" points="92.4 125.12 77.42 115.3 77.42 127.42 92.4 137.25 92.4 125.12"/><path class="cls-4" d="M92.4,206.54l-5.84-2.95c-28.67-14.45-49.46-31-63.58-50.43C7.54,131.84,0,107.09,0,77.5H0V29l14.59,2.4c2.33.38,4.71.67,7.08.85,2.15.17,4.32.25,6.46.25,21.64,0,41.67-8.19,54.93-22.46L92.4,0l9.35,10.06C115,24.33,135,32.52,156.68,32.52a83.84,83.84,0,0,0,13.54-1.1L184.81,29V77.4c0,29.62-7.51,54.39-23,75.73-14.11,19.48-34.88,36-63.52,50.42ZM12,43.15V77.4c0,27.07,6.79,49.52,20.7,68.72C45.66,164,65.05,179.31,92,192.88h0l.44.22.53-.26c26.88-13.57,46.25-28.86,59.2-46.75C166,126.87,172.81,104.4,172.81,77.4V43.15l-.65.11a95.18,95.18,0,0,1-15.48,1.26c-25,0-48.2-9.58-63.73-26.3l-.55-.59-.55.59C76.33,34.94,53.1,44.52,28.13,44.52c-2.45,0-4.93-.1-7.38-.28-2.72-.21-5.44-.54-8.11-1Z"/></g></g></svg>